<?xml version="1.0" encoding="UTF-8" standalone="no"?>
<!DOCTYPE svg PUBLIC "-//W3C//DTD SVG 1.1//EN" "http://www.w3.org/Graphics/SVG/1.1/DTD/svg11.dtd">
<svg width="100%" height="100%" viewBox="0 0 7993 2774" version="1.1" xmlns="http://www.w3.org/2000/svg" xmlns:xlink="http://www.w3.org/1999/xlink" xml:space="preserve" xmlns:serif="http://www.serif.com/" style="fill-rule:evenodd;clip-rule:evenodd;stroke-linejoin:round;stroke-miterlimit:2;">
    <g transform="matrix(1,0,0,1,-170.456,-2779.78)">
        <path d="M8124.29,4773.67L7660.66,4773.67L7614.91,4668.42C7606.37,4648.75 7586.83,4636.38 7565.54,4637.3C7544.12,4638.05 7525.66,4651.63 7518.54,4671.84L7474.58,4796.63L7424.37,4496.21C7420.12,4470.75 7398.08,4453.17 7372.41,4452.96C7346.58,4453.38 7325.33,4472.3 7321.91,4497.88L7238.08,5125.25L7153.37,3787.21C7151.66,3760.51 7131.04,3740.13 7104.33,3738.76C7077.66,3737.63 7055,3755.51 7050.58,3781.92L6884.58,4769.76L6625.58,4769.76C6607.41,4769.76 6590.33,4779.46 6581,4795.13L6543.16,4859.01L6461.58,4620.05C6454.33,4598.84 6434,4585.21 6412,4585.01C6389.58,4585.26 6370,4599.76 6363.21,4621.09L6274.62,4899.55L6245.79,4816.21C6238.58,4795.38 6218.91,4781.38 6196.83,4781.38L5515.79,4780.38C5516.83,4769.59 5517.87,4758.8 5519,4748.01C5522.5,4714.92 5527.91,4682.34 5543.21,4648.13C5547.25,4658.92 5549.21,4665.88 5552.33,4672.26C5557.41,4682.63 5564.21,4692.92 5576.71,4693.38C5590.29,4693.92 5597.21,4682.92 5602.37,4672.09C5609.33,4657.51 5611.25,4641.67 5611.46,4625.67C5612.21,4563.55 5606.91,4501.67 5601.33,4439.92C5590.5,4319.8 5571.87,4200.84 5543.62,4083.51C5541.33,4074.01 5541.41,4066.17 5547.04,4057.46C5556.91,4042.13 5560.96,4024.59 5562.25,4006.38C5566.62,3945.3 5553.29,3887.05 5532.58,3830.3C5498.96,3738.13 5458.96,3648.76 5411.79,3562.67C5319.83,3394.67 5205.71,3244.09 5060.21,3118.59C4821.21,2912.46 4543.66,2800.17 4228.79,2781.88C4102.21,2774.55 3976.75,2786.51 3853.29,2816.76C3563.46,2887.71 3325.75,3042.76 3130.5,3265.8C3015.41,3397.26 2924,3544.09 2852.79,3703.42C2823.33,3769.38 2793.12,3835.3 2778.91,3906.88C2770.16,3950.88 2761.41,3996.46 2779.46,4038.71C2790.58,4064.76 2789.91,4087.13 2782.83,4112.01C2780.46,4120.38 2778.83,4128.96 2777,4137.51C2755.54,4237.88 2740.79,4339.34 2731.75,4441.51C2726.37,4502.26 2721.21,4563.09 2721.62,4624.21C2721.75,4642.92 2724.54,4661.17 2734.04,4677.55C2746.54,4699.09 2765.16,4699.17 2777.71,4677.55C2782.66,4669.01 2785.58,4659.3 2789.96,4648.84C2799.41,4667.09 2803.91,4685.42 2807.66,4703.92C2812.79,4729.21 2815.25,4754.84 2817.71,4780.46L2136.29,4781.46C2114.25,4781.46 2094.54,4795.46 2087.33,4816.3L2058.5,4899.63L1969.91,4621.17C1963.12,4599.84 1943.5,4585.34 1921.12,4585.09C1899.16,4585.3 1878.79,4598.92 1871.54,4620.13L1789.96,4859.09L1752.12,4795.21C1742.79,4779.55 1725.75,4769.84 1707.54,4769.84L1448.54,4769.84L1282.54,3782.01C1278.12,3755.63 1255.46,3737.71 1228.79,3738.84C1202.08,3740.21 1181.46,3760.59 1179.75,3787.3L1095.04,5125.34L1011.21,4497.96C1007.79,4472.38 986.54,4453.46 960.706,4453.05C935.081,4453.21 913.04,4470.8 908.748,4496.3L858.54,4796.71L814.581,4671.92C807.456,4651.71 789.04,4638.13 767.581,4637.38C746.29,4636.46 726.748,4648.8 718.206,4668.5L672.456,4773.75L209.04,4773.75C187.706,4773.75 170.456,4791.05 170.456,4812.34C170.456,4833.67 187.748,4850.92 209.04,4850.92L689.29,4850.92C709.956,4850.92 728.581,4838.67 736.79,4819.75L763.415,4758.55L818.665,4915.34C826.54,4937.63 848.498,4951.75 871.998,4949.71C895.54,4947.67 914.706,4929.96 918.623,4906.63L957.206,4675.63L1052.87,5391.46C1056.33,5417.38 1078.25,5436.42 1104.16,5436.42C1104.79,5436.42 1105.41,5436.42 1106,5436.38C1132.75,5435.46 1154.21,5414.63 1155.91,5387.88L1243.04,4011.84L1376.12,4803.8C1380.33,4828.84 1401.79,4847.01 1427.21,4847.01L1693.21,4847.01L1751.75,4945.84C1762,4963.17 1781.5,4972.96 1801.62,4970.96C1821.66,4968.88 1838.83,4955.21 1845.33,4936.13L1919.83,4717.96L2008.25,4995.92C2015.04,5017.26 2034.62,5031.76 2056.96,5032.01C2079.41,5031.71 2099.25,5018.26 2106.54,4997.17L2154.46,4858.67L2828.21,4857.71C2847.91,4950.88 2900.21,5015.09 2996.16,5040.34C3006.79,5043.13 3009.25,5049.8 3011.25,5058.8C3029.87,5143.46 3052.46,5227.09 3078.58,5309.8C3084.46,5328.46 3094.21,5344.3 3109.21,5356.8C3137.12,5380.01 3170,5380.21 3203,5363.71C3228.71,5350.88 3239.16,5320.96 3232.33,5286.09C3219.37,5220.21 3206.04,5154.38 3192.96,5088.55C3192.04,5083.88 3188.58,5076.63 3195.25,5075.42C3201.71,5074.26 3201.25,5082.13 3202.21,5086.88C3215.58,5153.21 3228.91,5219.55 3242.21,5285.88C3256.62,5357.76 3270.96,5429.63 3285.46,5501.51C3289.41,5521.17 3302.62,5535.63 3319.21,5533.17C3345.16,5529.34 3374.66,5532.21 3391.41,5503.51C3393.21,5506.63 3394.29,5508.38 3395.21,5510.17C3414.04,5546.26 3439.75,5558.67 3480.04,5550.92C3502.21,5546.67 3524.16,5541.42 3546.46,5538.05C3621.83,5526.55 3665.58,5464.09 3663.91,5389.63C3662.54,5328.17 3657.83,5266.76 3652.37,5205.51C3642.41,5093.63 3625.83,4982.63 3603.71,4872.46C3600.21,4854.96 3600.41,4854.63 3619.04,4854.92C3664.16,4855.71 3709.29,4856.92 3754.41,4857.67C3774.71,4858.01 3777.71,4855.34 3782.79,4835.3C3787.66,4816.01 3792.54,4796.67 3798.29,4773.92C3810.71,4839.71 3822.41,4901.96 3834.25,4964.17C3836.12,4974.01 3838.91,4984.05 3851.79,4983.76C3863.41,4983.51 3866.62,4974.63 3868.91,4965.17C3875.87,4936.26 3883.41,4907.46 3889.71,4878.42C3892.16,4867.01 3897.62,4863.59 3908.75,4863.76C3949.79,4864.3 3990.83,4864.09 4031.87,4864.09C4053.5,4864.09 4058.25,4860.63 4064.66,4839.51C4072.41,4814.01 4079.87,4788.38 4087.46,4762.84C4097.75,4728.17 4108.08,4693.55 4119.04,4656.63C4120.91,4660.46 4121.91,4661.71 4122.12,4663.05C4135.58,4758.46 4148.91,4853.88 4162.41,4949.3C4170.46,5006.13 4178.79,5062.92 4186.91,5119.71C4188.54,5131.17 4194.16,5139.55 4206.29,5139.84C4218.41,5140.09 4223.71,5131.63 4226.87,5120.63C4249.66,5040.76 4273.12,4961.05 4295.41,4881.05C4299.25,4867.3 4305.54,4863.59 4319,4863.8C4359.54,4864.51 4400.08,4863.71 4440.58,4863.96C4456.54,4864.05 4465.5,4856.59 4468.87,4841.42C4472.41,4825.63 4475.96,4809.84 4479.54,4794.09C4487.58,4818.38 4492.83,4842.67 4498,4866.96C4504.58,4898.05 4510.91,4929.21 4517.83,4960.21C4519.75,4968.84 4520.04,4980.21 4532.62,4980.55C4546.37,4980.92 4545.66,4968.55 4548.71,4959.76C4549.21,4958.3 4549.25,4956.71 4549.58,4955.21C4555.66,4927.17 4562,4899.17 4567.79,4871.05C4569.58,4862.26 4573.12,4857.67 4582.91,4857.55C4627.54,4856.92 4672.16,4855.96 4716.75,4854.67C4728.75,4854.34 4733.12,4856.92 4730.33,4870.46C4717.46,4932.71 4707,4995.38 4698.16,5058.38C4687.83,5132.01 4680.21,5205.92 4675,5280.05C4671.96,5323.46 4668.12,5366.96 4670.66,5410.63C4674.25,5472.13 4717.54,5522.71 4777.58,5535.63C4804.12,5541.34 4830.83,5546.51 4857.46,5551.8C4890.62,5558.38 4918.66,5545.42 4935.33,5516.09C4937.5,5512.26 4938,5507.26 4943.21,5504.26C4954.79,5528.38 4978.83,5527.34 4999.91,5531.67C5028.08,5537.46 5042.58,5527.17 5048.29,5498.92C5060.58,5438.13 5072.83,5377.34 5085.08,5316.55C5100.46,5240.17 5115.79,5163.76 5131.16,5087.38C5132.12,5082.55 5132,5074.63 5137.96,5075.51C5144.75,5076.51 5140.79,5083.8 5140.54,5088.51C5140.5,5089.51 5140,5090.46 5139.79,5091.46C5126.54,5157.8 5113.04,5224.13 5100.08,5290.55C5092.58,5329.05 5113.08,5362.13 5148.96,5371.01C5197.96,5383.09 5238.87,5360.34 5254.46,5311.3C5280.71,5228.67 5303.5,5145.05 5321.71,5060.26C5324.33,5048.05 5329.5,5042.51 5341.62,5039.13C5412.83,5019.34 5463.75,4976.13 5490.87,4906.46C5497.12,4890.46 5501.66,4874.13 5505.12,4857.63L6178.83,4858.59L6226.75,4997.09C6234.04,5018.21 6253.87,5031.67 6276.33,5031.92C6298.66,5031.63 6318.25,5017.13 6325.04,4995.84L6413.46,4717.88L6487.96,4936.05C6494.46,4955.13 6511.62,4968.8 6531.66,4970.88C6551.79,4972.88 6571.29,4963.05 6581.54,4945.76L6640.08,4846.92L6906.08,4846.92C6931.46,4846.92 6952.96,4828.76 6957.16,4803.71L7090.25,4011.76L7177.37,5387.8C7179.08,5414.5 7200.54,5435.34 7227.29,5436.3C7227.91,5436.34 7228.54,5436.34 7229.12,5436.34C7255.08,5436.34 7276.96,5417.3 7280.41,5391.38L7376.08,4675.55L7414.66,4906.55C7418.54,4929.88 7437.71,4947.59 7461.29,4949.63C7484.79,4951.67 7506.75,4937.55 7514.62,4915.25L7569.87,4758.46L7596.5,4819.67C7604.71,4838.63 7623.37,4850.84 7644,4850.84L8124.25,4850.84C8145.58,4850.84 8162.83,4833.55 8162.83,4812.25C8162.87,4790.92 8145.58,4773.67 8124.29,4773.67L8124.29,4773.67ZM3333.5,5464.84C3326.5,5465.34 3325.46,5459.55 3324.46,5454.55C3319.21,5428.96 3314.08,5403.34 3308.96,5377.71C3246.88,5068.25 3184.75,4758.84 3122.67,4449.38C3122.08,4446.38 3121.38,4443.38 3121.12,4440.34C3120.75,4435.71 3122.58,4432.13 3127.46,4431.34C3132,4430.59 3133.92,4433.8 3134.88,4437.46C3136.75,4444.92 3138.54,4452.38 3140.04,4459.92C3188.17,4699.55 3236.29,4939.17 3284.33,5178.8C3302.38,5268.71 3320.17,5358.67 3338.08,5448.63C3338.58,5451.13 3339.21,5453.63 3339.79,5456.13C3340.33,5460.92 3338.42,5464.46 3333.5,5464.84ZM3439,5478.84C3432.5,5480.38 3431,5475.3 3429.96,5470.88C3427.33,5459.92 3425.08,5448.88 3422.88,5437.8C3367.29,5160.46 3311.75,4883.09 3256.17,4605.75C3242.25,4536.42 3228.21,4467.13 3214.21,4397.8C3213.58,4394.8 3213.29,4391.71 3212.96,4389.46C3212.88,4384 3212.33,4378.59 3218.88,4378.21C3226.04,4377.75 3226.33,4383.88 3227.33,4388.84C3239.42,4448.59 3251.54,4508.38 3263.5,4568.17C3322.46,4862.09 3381.38,5156 3440.33,5449.92C3441.54,5455.96 3442.71,5462 3444.08,5468C3445.17,5473.05 3445.08,5477.42 3439,5478.84ZM4905.29,5462.96C4904.79,5465.46 4904.71,5468.09 4904,5470.55C4902.5,5475.67 4900.58,5480.8 4893.54,5478.59C4887.41,5476.67 4888.62,5471.92 4889.58,5467.17C4896.66,5432 4903.58,5396.8 4910.62,5361.63C4974.96,5041.09 5039.29,4720.55 5103.62,4400C5104.75,4394.46 5105.71,4388.92 5107.25,4383.5C5108.54,4378.88 5112.08,4376.96 5116.79,4378.13C5121.41,4379.25 5121.41,4382.92 5120.87,4388.42C5114.54,4420.42 5107.96,4454.13 5101.16,4487.8C5035.91,4812.84 4970.58,5137.88 4905.29,5462.96ZM5012.25,5439.5C5011.25,5444.55 5010.21,5449.55 5009.16,5454.55C5008,5460.34 5006.46,5466.5 4998.71,5464.5C4991.5,5462.63 4993.91,5456.71 4994.91,5451.75C5003.83,5407.05 5012.62,5362.3 5021.62,5317.59C5079.66,5028.25 5137.75,4738.88 5195.87,4449.55C5196.58,4446.05 5197.37,4442.55 5198.29,4439.09C5199.33,4435.05 5200.41,4430.5 5205.91,4431.34C5211.75,4432.21 5212.66,4436.84 5212.21,4442.67C5205.87,4474.5 5199.41,4507.17 5192.83,4539.84C5132.66,4839.71 5072.46,5139.63 5012.25,5439.5ZM5412.58,4745.75C5408.79,4786.05 5406.41,4826.59 5392.58,4865.21C5383.71,4890 5370.96,4906.96 5350.37,4919.17C5351.79,4909.38 5352.83,4901.21 5354.21,4893.09C5366.96,4818.8 5376.29,4744.05 5382.96,4668.96C5387.71,4615.34 5350.5,4575.09 5297.25,4573.63C5267.29,4572.84 5238.79,4598.09 5231.75,4632.71C5219.96,4690.46 5208.62,4748.34 5197.04,4806.13C5195.12,4815.67 5193.25,4825.25 5191.12,4834.75C5190.21,4838.92 5190.79,4845.92 5184.25,4844.21C5178.21,4842.63 5181.54,4836.5 5182.37,4832.25C5190.21,4792.5 5198.04,4752.8 5206,4713.09C5225.75,4614.59 5245.62,4516.09 5265.33,4417.59C5270.71,4390.8 5260.08,4374.84 5233.71,4369.5C5227.66,4368.3 5221.54,4367.46 5215.62,4365.92C5199.66,4361.8 5184.25,4361.13 5170.66,4372.5C5166.58,4367.88 5168.37,4363 5167.75,4358.67C5162.71,4323.96 5142.21,4302.38 5107.75,4295.59C5082.62,4290.63 5057.5,4285.5 5032.37,4280.42C4974,4268.59 4929.04,4290.25 4893.91,4336.05C4875.41,4360.13 4867.5,4389.17 4857.33,4417.05C4809.16,4549.25 4770.37,4684.21 4740.66,4821.71C4737.41,4836.75 4731.5,4841.84 4716.21,4841.21C4670.62,4839.46 4624.96,4839.05 4579.33,4838.38C4558.04,4838.05 4555.41,4840.38 4550.04,4861.5C4545.25,4880.34 4540.54,4899.17 4535.79,4918.05C4535.08,4917.88 4534.41,4917.71 4533.71,4917.55C4522.54,4858.63 4511.5,4799.71 4500.16,4740.84C4497.91,4729.21 4498.87,4713.46 4482.25,4712.59C4465.33,4711.67 4465.08,4727.46 4462.12,4738.92C4455.41,4765.25 4448.91,4791.63 4443.12,4818.17C4440.83,4828.8 4435.41,4832.34 4424.96,4832.17C4383.91,4831.63 4342.87,4831.59 4301.83,4831.5C4280.83,4831.46 4274.54,4835.84 4268.5,4855.96C4252.58,4909 4236.96,4962.13 4221.21,5015.21C4219.04,5022.55 4216.75,5029.84 4211.5,5037.25C4208.16,5013.42 4204.83,4989.63 4201.46,4965.8C4183.29,4837.92 4165.04,4710.09 4146.96,4582.21C4145.21,4569.84 4142.66,4558.09 4127.54,4556.88C4112.04,4555.63 4108.12,4567.59 4104.79,4579.3C4082.62,4656.67 4060.08,4733.96 4038.71,4811.59C4034.62,4826.42 4028.79,4832.46 4012.71,4831.96C3976.33,4830.88 3939.87,4831.84 3903.41,4832.09C3871.96,4832.34 3868.16,4835.59 3861.41,4866.67C3858.75,4879 3855.96,4891.34 3850.75,4903.59C3841.5,4860.17 3832.21,4816.8 3822.96,4773.38C3819.83,4758.84 3816.71,4744.3 3813.58,4729.8C3811.96,4722.25 3808.75,4715.59 3800.08,4715.42C3791.33,4715.25 3787.96,4721.8 3786.29,4729.38C3779.41,4760.42 3772.16,4791.38 3765.87,4822.5C3763.71,4833.21 3759.66,4838.5 3747.87,4838.59C3703.25,4838.96 3658.62,4839.71 3614.04,4841.17C3601.16,4841.59 3596.33,4836.92 3593.62,4824.5C3560.96,4673.38 3517.21,4525.5 3462.96,4380.71C3447.96,4340.71 3423.87,4308.84 3384.83,4289.67C3360.08,4277.55 3334.12,4273.96 3307,4279.42C3283.37,4284.17 3259.66,4288.55 3236.08,4293.38C3185.91,4303.71 3170.5,4320.46 3164.08,4372.38C3138.87,4354.59 3113.75,4366.34 3089.21,4372.8C3070.83,4377.63 3063.54,4394.71 3067.83,4416.38C3081.12,4483.25 3094.58,4550.09 3108,4616.92C3122.29,4688.3 3136.58,4759.67 3150.83,4831.05C3151.75,4835.67 3155.66,4842.84 3148.79,4844.17C3141.87,4845.55 3142.91,4837.38 3142,4832.8C3128.66,4766.96 3115.41,4701.13 3102.25,4635.3C3095.08,4599.46 3068.21,4573.75 3037.33,4573.59C2983.37,4573.34 2944.71,4618.09 2950.54,4672.5C2959.16,4753.05 2968.5,4833.46 2982.62,4913.25C2982.87,4914.59 2982.16,4916.05 2981.62,4919C2960.66,4906.09 2949.04,4887.42 2941.21,4865.96C2926.96,4826.92 2924.87,4785.75 2920.75,4745C2915.83,4696.34 2908.37,4648.38 2886.71,4603.75C2873.25,4576.05 2855.08,4552.25 2829.87,4534.17C2826.12,4531.5 2822.21,4528.92 2818.08,4527C2796.08,4516.8 2797.08,4516.96 2799.04,4491.46C2806.08,4399.88 2817.33,4308.88 2834.46,4218.67C2841.54,4181.42 2850.21,4144.46 2858.04,4107.38C2859.33,4101.21 2860.71,4095.71 2867.71,4093C2893.46,4082.92 2909.5,4062.3 2923.66,4039.96C2945.21,4005.92 2958.83,3968.21 2972.83,3930.71C3037.87,3756.8 3126,3596.09 3246.08,3453.71C3247.41,3452.13 3248.62,3450.5 3250,3448.96C3255.16,3443.3 3259.41,3435.8 3265.83,3432.46C3274.25,3428.09 3278.25,3439 3284.87,3442.05C3298.08,3448.13 3311.75,3449.46 3325.5,3446.96C3399.62,3433.5 3463.91,3345.13 3451.62,3278.34C3478.83,3300.92 3508.25,3300.13 3538.79,3290.88C3569.41,3281.59 3593.29,3262.75 3613.16,3238.5C3631.83,3215.71 3643.71,3190.05 3642.83,3159C3678.91,3196.13 3721.33,3196.17 3764.71,3178.34C3807.71,3160.67 3837.71,3129.67 3847.75,3080.75C3878.71,3120.88 3919.41,3131.17 3965.16,3121.42C4009.83,3111.88 4043.21,3086.63 4059.33,3041.42C4103.54,3125.34 4233.87,3121.25 4273.91,3040.92C4290.58,3086.71 4324.16,3112.25 4369.37,3121.63C4414.66,3131 4454.83,3120.67 4484.75,3082.09C4505.66,3181.96 4638.87,3221.42 4690.21,3159.34C4689.71,3229.67 4762.41,3296.05 4828.91,3296.92C4843.08,3297.09 4856.62,3294.75 4868.83,3287.63C4876.96,3282.88 4879.96,3282.92 4880.37,3293.8C4883,3358.34 4929.62,3421.13 4990,3442.09C5014.37,3450.55 5038.25,3452.75 5059.46,3433.92C5067.21,3427 5070.25,3434.38 5074,3438.55C5103.54,3471.38 5130.54,3506.3 5156.25,3542.17C5245.66,3666.84 5313.87,3802.55 5366.58,3946.34C5382.5,3989.75 5399.75,4032.59 5430.71,4068.17C5438.21,4076.8 5446.41,4085.17 5456.96,4089.09C5469.79,4093.84 5474.41,4102.5 5477.29,4114.96C5502.29,4223.5 5520.21,4333.17 5530.08,4444.17C5531.96,4465.09 5533.79,4486.05 5535.79,4506.96C5536.71,4516.46 5533.37,4520.8 5523.54,4524.46C5490.66,4536.8 5469.5,4562.59 5452.91,4592.25C5426.29,4639.84 5417.62,4692.34 5412.58,4745.75Z" style="fill:rgb(247,223,30);fill-rule:nonzero;"/>
    </g>
</svg>
